<?xml version="1.0" encoding="utf-8"?>
<!-- Generator: Adobe Illustrator 23.0.3, SVG Export Plug-In . SVG Version: 6.00 Build 0)  -->
<svg version="1.1" id="Travel_Experts_logo_xA0_Image_1_"
	 xmlns="http://www.w3.org/2000/svg" xmlns:xlink="http://www.w3.org/1999/xlink" x="0px" y="0px" viewBox="0 0 500 500"
	 style="enable-background:new 0 0 500 500;" xml:space="preserve">
<style type="text/css">
	.st0{fill:#2E92ED;}
	.st1{fill:#FFFFFF;}
</style>
<path class="st0" d="M487.3,251.5c9.6,114.4-100.3,250.7-259.3,237.9C133.7,482-0.3,392.2,11.9,228.4
	c7.1-93.6,96.5-227.6,261.6-215.1C377.6,21,494.6,120.7,487.3,251.5z"/>
<path d="M343,314c0-16,1.3-33.7-0.3-51c-2.6-25.6,8.3-40.1,30.8-51.9c26.6-14.1,52.3-31.4,67.6-59.6c6.7-12.2,2.6-19.9-9.3-21.5
	c-10.3-1.6-22.1-1.9-31.4,1.9c-25.3,10.6-50.3,23.1-74.7,35.9c-11.2,5.8-21.8,8-32.4,1.9c-15.7-8.7-30.5-18.6-45.8-27.6
	c-8.3-4.8-11.9-9.9-8.7-20.5c1.6-4.8-2.9-12.8-6.7-17.3c-1.9-2.2-9,0.6-13.8,0.6c-11.5,0.3-24.4,3.5-34.3-0.3
	c-15.7-6.1-29.5-18-44.6-26.3c-5.8-3.2-12.8-3.2-19.2-4.5c-0.6,1.6-1.6,3.2-2.2,4.8c23.1,26,46.2,51.9,68.9,77.9
	c13.1,15.1,26.6,29.8,39.1,45.8c9,11.5,6.4,23.1-5.1,31.4c-23.1,16-46.5,32.1-69.9,47.8c-12.5,8.3-25,11.5-38.8,0
	c-12.5-10.3-26.9-18-41.4-25.6c-4.8-2.6-11.5-1-17.3-1c1.6,4.5,1.9,9.9,4.8,13.5c8,9.9,16.7,19.2,25.3,28.5
	c12.8,13.8,13.5,22.1,2.9,37.2c-2.2,2.9-2.9,6.7-4.5,10.6c3.2,1.3,4.5,2.2,5.8,1.9c26.9-5.8,27.6-4.8,35.3,22.4
	c4.5,15.7,10.9,30.8,16.7,46.2c2.2,0,4.5,0.3,6.7,0.3c2.9-9,7.4-17.6,7.7-26.6c0.6-15.1-1-30.5-2.9-45.8
	c-1.6-12.8,4.5-19.6,15.4-24.4c25.6-11.9,51.3-23.4,76.6-36.2c18.3-9.3,28.5-7.7,35.3,10.9c9.9,26.9,18,54.5,27.2,81.4
	c8.3,24.4,17.3,48.4,26,72.8c1.6-0.3,3.5-0.6,5.1-1c6.4-15.1,8-30.8,5.8-47.8c-2.6-18.9-5.8-39.1,15.7-51.3
	c8.3-4.8,9.6-12.2,2.9-19.2C355.8,323.3,350.1,319.8,343,314z"/>
<path class="st1" d="M335.3,308.2c7.4,5.8,12.8,9,17.3,13.8c6.7,7.1,5.4,14.4-2.9,19.2c-21.2,12.5-18,32.4-15.7,51.3
	c2.2,17,0.6,32.7-5.8,47.8c-1.6,0.3-3.5,0.6-5.1,1c-8.7-24-17.6-48.4-26-72.8c-9.3-27.2-17.6-54.5-27.2-81.4
	c-6.7-18.6-17-20.2-35.3-10.9c-25,12.8-51,24.4-76.6,36.2c-10.9,4.8-16.7,11.5-15.4,24.4c1.6,15.1,3.5,30.5,2.9,45.8
	c-0.3,9-5.1,18-7.7,26.6c-2.2,0-4.5-0.3-6.7-0.3c-5.8-15.4-12.2-30.5-16.7-46.2c-7.7-27.2-8.3-28.2-35.3-22.4
	c-1.3,0.3-2.9-1-5.8-1.9c1.6-3.8,2.6-7.7,4.5-10.6c10.9-14.7,10.3-23.4-2.9-37.2c-8.7-9.3-17.3-18.6-25.3-28.5
	c-2.9-3.5-3.2-9-4.8-13.5c5.8,0.3,12.5-1.3,17.3,1c14.4,7.7,28.9,15.4,41.4,25.6c14.1,11.5,26.3,8.3,38.8,0
	c23.7-15.7,46.8-31.7,69.9-47.8c11.9-8,14.1-19.9,5.1-31.4c-12.2-15.7-25.6-30.8-39.1-45.8c-22.8-26-45.8-51.9-68.9-77.9
	c0.6-1.6,1.6-3.2,2.2-4.8c6.4,1.3,13.8,1.6,19.2,4.5c15.1,8.3,28.9,19.9,44.6,26.3c9.9,3.8,22.8,0.6,34.3,0.3
	c4.8,0,11.9-2.9,13.8-0.6c3.8,4.5,8.3,12.5,6.7,17.3c-3.2,10.6,0.3,15.7,8.7,20.5c15.4,9,30.1,18.9,45.8,27.6
	c10.9,6.1,21.5,3.8,32.4-1.9c24.4-12.8,49-25.3,74.7-35.9c9.3-3.8,21.2-3.5,31.4-1.9c11.9,1.9,16,9.3,9.3,21.5
	c-15.4,28.2-41,45.5-67.6,59.6C342,216.5,331.5,231,334,256.6C336.6,274.6,335.3,292.5,335.3,308.2z"/>
</svg>
